<svg xmlns="http://www.w3.org/2000/svg" width="220mm" height="150mm" viewBox="0 0 220 150">
<defs>
<marker id="arrow" markerWidth="6" markerHeight="6" refX="5" refY="3" orient="auto" markerUnits="strokeWidth">
<path d="M0,0 L6,3 L0,6 z" fill="#222"/>
</marker>
</defs>
<rect x="0" y="0" width="100%" height="100%" fill="#fbfaf6"/>
<text x="8" y="10" font-family="Arial, sans-serif" font-size="5" font-weight="700">AR-MK1-004 接线框图</text>
<g stroke="#222" stroke-width="0.45" fill="none" font-family="Arial, sans-serif" font-size="3.2">
<rect x="20" y="55" width="34" height="18" rx="3" stroke="#222" fill="#fff"/>
<text x="37.0" y="65.0" fill="#111" stroke="none" text-anchor="middle">1S 18650</text>
<rect x="150" y="22" width="50" height="28" rx="3" stroke="#222" fill="#fff"/>
<text x="175.0" y="37.0" fill="#111" stroke="none" text-anchor="middle">ESP32 双眼板</text>
<rect x="75" y="82" width="42" height="20" rx="3" stroke="#222" fill="#fff"/>
<text x="96.0" y="93.0" fill="#111" stroke="none" text-anchor="middle">5 V 升压</text>
<rect x="145" y="80" width="42" height="22" rx="3" stroke="#222" fill="#fff"/>
<text x="166.0" y="92.0" fill="#111" stroke="none" text-anchor="middle">DRV8833</text>
<rect x="75" y="25" width="42" height="22" rx="3" stroke="#222" fill="#fff"/>
<text x="96.0" y="37.0" fill="#111" stroke="none" text-anchor="middle">PCA9685</text>
<rect x="145" y="115" width="42" height="18" rx="3" stroke="#222" fill="#fff"/>
<text x="166.0" y="125.0" fill="#111" stroke="none" text-anchor="middle">N20 电机</text>
<rect x="150" y="55" width="42" height="15" rx="3" stroke="#222" fill="#fff"/>
<text x="171.0" y="63.5" fill="#111" stroke="none" text-anchor="middle">喇叭</text>
<rect x="75" y="112" width="42" height="16" rx="3" stroke="#222" fill="#fff"/>
<text x="96.0" y="121.0" fill="#111" stroke="none" text-anchor="middle">AHCT/HCT</text>
<rect x="20" y="115" width="42" height="18" rx="3" stroke="#222" fill="#fff"/>
<text x="41.0" y="125.0" fill="#111" stroke="none" text-anchor="middle">WS2812B 车灯</text>
<polyline points="54,64 62,14 150,36" fill="none" stroke="#a33" marker-end="url(#arrow)"/>
<text x="102" y="18" fill="#a33" stroke="none" text-anchor="middle">3.7 V 主控支路</text>
<line x1="54" y1="64.0" x2="75" y2="92.0" stroke="#a33" marker-end="url(#arrow)"/>
<text x="64.5" y="76.0" fill="#a33" stroke="none" text-anchor="middle">电机开关支路</text>
<line x1="117" y1="92.0" x2="145" y2="91.0" stroke="#a33" marker-end="url(#arrow)"/>
<text x="131.0" y="89.5" fill="#a33" stroke="none" text-anchor="middle">5 V VM</text>
<line x1="117" y1="36.0" x2="145" y2="91.0" stroke="#1f4e79" marker-end="url(#arrow)"/>
<text x="131.0" y="61.5" fill="#1f4e79" stroke="none" text-anchor="middle">4 x PWM</text>
<line x1="200" y1="36.0" x2="75" y2="36.0" stroke="#1f4e79" marker-end="url(#arrow)"/>
<text x="137.5" y="34.0" fill="#1f4e79" stroke="none" text-anchor="middle">I2C + 3V3</text>
<line x1="187" y1="91.0" x2="145" y2="124.0" stroke="#333" marker-end="url(#arrow)"/>
<text x="166.0" y="105.5" fill="#333" stroke="none" text-anchor="middle">A/B 输出</text>
<line x1="200" y1="36.0" x2="150" y2="62.5" stroke="#333" marker-end="url(#arrow)"/>
<text x="175.0" y="47.25" fill="#333" stroke="none" text-anchor="middle">喇叭接口</text>
<line x1="200" y1="36.0" x2="75" y2="120.0" stroke="#1f4e79" marker-end="url(#arrow)"/>
<text x="137.5" y="76.0" fill="#1f4e79" stroke="none" text-anchor="middle">数据 GPIO</text>
<line x1="117" y1="120.0" x2="20" y2="124.0" stroke="#1f4e79" marker-end="url(#arrow)"/>
<text x="68.5" y="120.0" fill="#1f4e79" stroke="none" text-anchor="middle">5 V 数据</text>
<line x1="117" y1="92.0" x2="20" y2="124.0" stroke="#a33" marker-end="url(#arrow)"/>
<text x="68.5" y="106.0" fill="#a33" stroke="none" text-anchor="middle">5 V + GND</text>
<text x="20" y="140" fill="#333" stroke="none">所有 GND 共地。电机不能从 ESP32 3.3 V 取电。WS2812B 数据建议经 AHCT/HCT 电平转换。</text>
</g>
</svg>